# xmcd
#
# Track frame offsets:
# 150
# 12163
# 32691
# 49208
# 70518
# 84777
# 99802
# 116690
# 134792
# 151811
#
# Disc length: 2336 seconds
#
#
# Revision: 0
# Processed by: cddbd v1.5.1PL2 Copyright (c) Steve Scherf et al.
# Submitted via: FreeRIP 2.944 
#
DISCID=71091e0a
DTITLE=The Annuals - Repondez
DYEAR=2005
DGENRE=Folk/Rock
TTITLE0=Constant Stride
TTITLE1=Sharpshooter
TTITLE2=The Devil Said, "R.S.V.P."
TTITLE3=Amy's Great Escape
TTITLE4=A Brief Moment Of Happiness
TTITLE5=Follow Your Headlights Home
TTITLE6=San Francisco, Take Me Back
TTITLE7=David's Country
TTITLE8=A Brief Moment Of Happiness (Part II)
TTITLE9=Ghosts Of Old
EXTD=
EXTT0=
EXTT1=
EXTT2=
EXTT3=
EXTT4=
EXTT5=
EXTT6=
EXTT7=
EXTT8=
EXTT9=
PLAYORDER=
